<svg width="218" height="67" viewBox="0 0 218 67" fill="none" xmlns="http://www.w3.org/2000/svg">
    <g filter="url(#filter0_dd_30_9180)">
        <ellipse cx="184.072" cy="31.7509" rx="27.77" ry="27.7312" fill="white"/>
        <path d="M170.874 40.7842C169.965 39.6813 169.139 38.4797 168.439 37.2494L168.333 37.054C166.846 34.4751 165.889 31.5016 165.569 28.4583L165.556 28.3524C165.282 25.4956 166.04 22.6997 167.584 20.8866C168.791 19.4859 170.529 18.6448 172.323 18.5695L172.647 18.5659C174.559 18.5659 176.355 19.4124 177.562 20.8615L177.619 20.9368C179.137 22.8162 179.719 25.6103 179.141 28.243C177.952 33.7201 174.008 38.0887 170.941 40.7645L170.892 40.8039L170.874 40.786V40.7842Z" fill="#155EEF"/>
        <path d="M197.234 40.7842C194.138 38.0852 190.193 33.7183 189.004 28.2359C188.427 25.6086 189.013 22.8127 190.543 20.9171L190.561 20.8902C191.789 19.4106 193.587 18.5641 195.534 18.5641H195.622L195.794 18.5677C197.613 18.6431 199.352 19.4842 200.555 20.8758C202.103 22.6961 202.863 25.492 202.588 28.3507L202.579 28.4475C202.256 31.4999 201.297 34.4733 199.797 37.0791L199.718 37.2261C199.009 38.4797 198.183 39.6813 197.269 40.7842L197.256 40.8022L197.234 40.7842Z" fill="#155EEF"/>
        <path d="M197.527 43.876C200.092 45.8738 202.838 47.5183 205.903 48.8957C203.996 51.3185 201.688 53.4186 199.075 55.099C199.057 55.1115 199.036 55.1205 199.018 55.1349C198.614 55.3913 198.206 55.6406 197.789 55.8755C197.759 55.8971 197.723 55.915 197.687 55.9383C197.265 56.1768 196.83 56.4082 196.392 56.6252C196.38 56.6288 196.365 56.6377 196.353 56.6431C194.995 57.3174 193.574 57.8752 192.102 58.3181C191.987 58.354 191.875 58.3845 191.764 58.415C191.4 58.5172 191.037 58.6194 190.663 58.7073C190.512 58.7432 190.362 58.779 190.207 58.8131C189.875 58.8884 189.537 58.9602 189.196 59.0211C189.027 59.0516 188.855 59.0839 188.686 59.109C188.354 59.1664 188.016 59.2148 187.678 59.2597C187.506 59.2812 187.332 59.3045 187.159 59.3224C186.8 59.3619 186.441 59.3942 186.077 59.4193C185.926 59.4282 185.775 59.4462 185.624 59.4551C185.109 59.482 184.595 59.5 184.071 59.5H184.035C183.528 59.4964 183.027 59.482 182.53 59.4551C182.352 59.4462 182.174 59.4282 181.998 59.4157C181.666 59.3888 181.332 59.3619 181.005 59.3278C180.806 59.3063 180.606 59.2794 180.407 59.2525C180.102 59.213 179.8 59.1682 179.498 59.1198C179.299 59.0839 179.094 59.048 178.895 59.0086C178.593 58.9548 178.291 58.8938 177.993 58.8274C177.806 58.7826 177.616 58.7432 177.429 58.6947C177.106 58.6158 176.786 58.5315 176.467 58.4383C176.312 58.3934 176.156 58.354 176.005 58.3092C175.583 58.18 175.166 58.0437 174.753 57.8967C174.708 57.8787 174.66 57.8662 174.615 57.8483C173.647 57.4985 172.711 57.095 171.797 56.6467C171.761 56.6288 171.726 56.6072 171.686 56.5893C171.269 56.3813 170.856 56.1589 170.449 55.9329C170.409 55.906 170.364 55.8845 170.325 55.8612C169.912 55.6227 169.504 55.3788 169.105 55.1205C169.087 55.108 169.069 55.099 169.048 55.0846C166.456 53.415 164.158 51.3275 162.256 48.9136C162.252 48.9136 162.247 48.91 162.247 48.9046C162.247 48.9046 162.246 48.9016 162.243 48.8957C165.314 47.5183 168.06 45.8738 170.643 43.8616L170.646 43.858L170.77 43.9907C171.196 44.4301 171.636 44.8552 172.11 45.2892C175.411 48.32 180.393 51.3777 184.076 51.3777C187.759 51.3777 192.736 48.32 196.038 45.2945C196.518 44.8552 196.952 44.4301 197.378 43.9925L197.502 43.8598L197.529 43.8778L197.527 43.876Z" fill="#155EEF"/>
        <path d="M211.849 31.6756V31.8262C211.849 32.2208 211.837 32.6153 211.819 33.0045C211.815 33.1641 211.801 33.3237 211.792 33.4779C211.779 33.7434 211.756 34.0016 211.734 34.2616C211.716 34.4338 211.704 34.6078 211.686 34.7799C211.65 35.0776 211.614 35.3735 211.571 35.6659C211.535 35.9187 211.496 36.1662 211.456 36.4155C211.417 36.6451 211.377 36.871 211.332 37.097C211.296 37.3014 211.253 37.4951 211.208 37.696C211.163 37.895 211.12 38.0995 211.07 38.2986C211.021 38.4887 210.977 38.6841 210.924 38.8796C210.853 39.1594 210.77 39.4427 210.689 39.7171C210.617 39.9521 210.542 40.187 210.467 40.4165C210.395 40.63 210.325 40.838 210.253 41.046C210.186 41.2325 210.12 41.4137 210.048 41.5948C209.973 41.7903 209.897 41.9804 209.822 42.1705C209.746 42.3516 209.675 42.5345 209.599 42.7103C209.502 42.9327 209.403 43.1443 209.306 43.3577C209.156 43.6859 208.996 44.0087 208.836 44.3243C208.782 44.4212 208.739 44.5198 208.685 44.6167C208.241 45.4578 207.758 46.2773 207.234 47.0664H207.23C204.183 45.7322 201.476 44.1342 198.978 42.1974V42.1938C199.977 40.9922 200.873 39.6866 201.663 38.2986L201.738 38.1569C203.376 35.3162 204.432 32.0378 204.786 28.6752L204.795 28.5694C205.133 25.1225 204.179 21.7115 202.243 19.4375C200.632 17.576 198.317 16.4515 195.859 16.3547H195.738C195.672 16.3511 195.597 16.3511 195.5 16.3511C192.926 16.3511 190.503 17.4899 188.831 19.5056L188.801 19.5451C186.876 21.9339 186.121 25.4471 186.836 28.7129C187.493 31.7383 188.885 34.4374 190.536 36.7509C192.186 39.0643 194.093 40.9868 195.78 42.4574C195.385 42.8645 194.981 43.2591 194.542 43.6626C191.556 46.3957 187.005 49.1647 184.076 49.1647C181.147 49.1647 176.591 46.3957 173.609 43.6626C173.166 43.2591 172.762 42.8645 172.372 42.4574C175.721 39.5378 179.994 34.7835 181.312 28.7129C182.027 25.4471 181.276 21.9339 179.36 19.563L179.293 19.4787C177.643 17.4899 175.22 16.3511 172.611 16.3511C172.539 16.3511 172.469 16.3511 172.402 16.3547L172.264 16.3582C169.829 16.4515 167.512 17.576 165.898 19.4411C163.967 21.7097 163.014 25.1207 163.351 28.5676L163.36 28.6788C163.716 32.0378 164.772 35.3162 166.395 38.13L166.498 38.3201C167.273 39.6848 168.17 40.9922 169.168 42.1974C166.652 44.1432 163.96 45.7322 160.916 47.0664C159.133 44.3817 157.805 41.3688 157.042 38.1425C157.015 38.0313 156.988 37.9166 156.967 37.8018C156.909 37.5543 156.855 37.3014 156.807 37.045C156.776 36.8907 156.749 36.7347 156.723 36.5751C156.66 36.229 156.608 35.8793 156.559 35.5296C156.523 35.2857 156.493 35.0418 156.466 34.7943C156.444 34.6131 156.43 34.4302 156.412 34.2491C156.39 33.9962 156.372 33.7398 156.354 33.4833C156.345 33.3237 156.333 33.1641 156.327 33.0045C156.309 32.6153 156.297 32.2208 156.297 31.8262V31.6756C156.297 31.2774 156.309 30.8865 156.327 30.4919C156.331 30.3323 156.345 30.1781 156.354 30.0185C156.372 29.7566 156.39 29.4948 156.412 29.2348C156.43 29.0626 156.442 28.8886 156.46 28.7165C156.496 28.4188 156.532 28.1265 156.575 27.8305C156.611 27.5831 156.651 27.3338 156.69 27.0863C156.73 26.8567 156.769 26.6254 156.814 26.3994C156.854 26.2004 156.893 26.0013 156.938 25.8004C156.983 25.6014 157.026 25.4023 157.076 25.2014C157.125 25.006 157.17 24.8123 157.224 24.6204C157.299 24.337 157.378 24.0573 157.462 23.7793C157.529 23.5443 157.604 23.3148 157.68 23.0799C157.752 22.8718 157.822 22.6584 157.897 22.4504C157.96 22.2692 158.03 22.0827 158.096 21.9016C158.172 21.7115 158.247 21.516 158.326 21.3259C158.398 21.1448 158.468 20.9619 158.549 20.7861C158.642 20.5691 158.739 20.3557 158.842 20.1387C158.993 19.8159 159.147 19.4913 159.312 19.1721C159.361 19.0752 159.409 18.9766 159.459 18.8833C161.701 14.6115 165.023 10.996 169.069 8.40098C169.087 8.38842 169.109 8.37407 169.127 8.36152C169.531 8.10507 169.939 7.85579 170.355 7.62085C170.391 7.60292 170.422 7.5814 170.458 7.56346C170.883 7.32494 171.314 7.0936 171.752 6.8766C171.765 6.86763 171.779 6.86404 171.792 6.85507C173.15 6.18614 174.574 5.62302 176.046 5.18005C176.158 5.14956 176.269 5.11728 176.384 5.08679C176.743 4.98098 177.111 4.88235 177.479 4.79447C177.63 4.75502 177.781 4.72274 177.936 4.68866C178.268 4.61334 178.611 4.5416 178.947 4.48063C179.119 4.45014 179.288 4.41786 179.457 4.38737C179.794 4.33357 180.127 4.28515 180.468 4.24031C180.637 4.21879 180.809 4.19189 180.983 4.17396C181.342 4.1345 181.707 4.10222 182.066 4.0807C182.221 4.06815 182.368 4.0538 182.522 4.04483C183.032 4.01435 183.548 4 184.07 4H184.106C184.613 4 185.114 4.01793 185.615 4.04483C185.793 4.0538 185.965 4.07174 186.143 4.08429C186.475 4.10581 186.809 4.13271 187.136 4.16858C187.335 4.1901 187.535 4.22238 187.739 4.24749C188.041 4.28694 188.343 4.3264 188.645 4.3802C188.849 4.41069 189.049 4.44655 189.248 4.48601C189.55 4.5434 189.851 4.60617 190.15 4.67252C190.336 4.71198 190.527 4.75681 190.713 4.80164C191.037 4.88055 191.356 4.97022 191.676 5.0581C191.831 5.10293 191.987 5.14239 192.138 5.19081C192.56 5.31993 192.976 5.45623 193.389 5.60329C193.434 5.61584 193.483 5.63378 193.528 5.64812C194.496 5.99783 195.435 6.40135 196.345 6.85328C196.385 6.87122 196.421 6.88915 196.457 6.90708C196.879 7.1205 197.29 7.3375 197.694 7.56705C197.739 7.58857 197.779 7.61547 197.818 7.63879C198.231 7.87372 198.639 8.12121 199.037 8.37946C199.059 8.38842 199.077 8.40098 199.095 8.40994C201.686 10.0796 203.985 12.1707 205.887 14.581C205.887 14.581 205.89 14.5852 205.896 14.5935C208.358 17.7087 210.159 21.3636 211.1 25.3503C211.127 25.4651 211.154 25.5763 211.18 25.691C211.233 25.9439 211.285 26.1968 211.334 26.4478C211.364 26.6021 211.391 26.7617 211.418 26.9177C211.481 27.2674 211.539 27.6135 211.582 27.9633C211.618 28.2107 211.648 28.4546 211.675 28.6985C211.697 28.8797 211.711 29.0626 211.729 29.2437C211.751 29.5002 211.774 29.7531 211.787 30.0095C211.796 30.1691 211.808 30.3287 211.813 30.4883C211.831 30.8829 211.844 31.2721 211.844 31.672L211.849 31.6756Z" fill="#155EEF"/>
    </g>
    <path fill-rule="evenodd" clip-rule="evenodd" d="M121.343 4.90904L122.892 4.10077H122.894C123.478 3.79745 124.178 4.22031 124.178 4.8787V26.3843C124.178 29.1749 123.355 31.3766 121.711 32.9842C120.165 34.4616 118.127 35.2003 115.595 35.2003H112.734C109.972 35.2003 107.833 34.3135 106.322 32.54C105.139 34.3135 103.231 35.2003 100.6 35.2003H62.6213C59.6607 35.2003 57.4415 34.1993 55.9621 32.1956C54.4166 34.1993 52.1796 35.2003 49.2547 35.2003H31.9411C31.6766 38.023 30.1954 40.305 27.4992 42.0464C24.9013 43.7219 21.5636 44.5587 17.4863 44.5587C12.4244 44.5587 8.60792 43.0795 6.04393 40.1248C4.13747 37.9248 3.18335 35.2145 3.18335 31.9975C3.18335 29.3194 3.83194 26.9963 5.13448 25.0265C5.27027 24.8213 5.49004 24.6803 5.73125 24.6322L6.61391 24.4555C7.35541 24.3074 7.92717 25.0729 7.59304 25.7509C6.65679 27.6547 6.19045 29.6548 6.19045 31.7531C6.19045 34.7738 7.22497 37.1879 9.2976 38.9936C11.2702 40.7332 13.9003 41.604 17.4845 41.604C21.0687 41.604 23.8793 40.8474 25.9179 39.338C27.4313 38.221 28.3193 36.8418 28.582 35.2003H25.0263C24.3527 35.2003 23.9186 34.4901 24.2277 33.8924L24.878 32.6327C25.0335 32.3348 25.3408 32.1474 25.6767 32.1474H48.858C52.4744 32.1474 54.2844 30.2757 54.2844 26.5324V16.3711C54.2844 16.0463 54.4648 15.7484 54.7525 15.5985L56.3123 14.7849C56.893 14.4815 57.5898 14.9026 57.5898 15.5574V26.5324C57.5898 30.2757 59.3962 32.1474 63.0144 32.1474H77.8105V5.6834C77.8105 5.35867 77.9856 5.05713 78.2697 4.89655L79.5168 4.19355C80.1207 3.85276 80.8676 4.28812 80.8676 4.98041V24.1165C84.7145 17.058 89.812 13.527 96.1586 13.527C99.8411 13.527 102.768 14.792 104.939 17.3203C106.777 19.4882 107.699 22.1645 107.699 25.3494V26.6305C107.699 30.3096 109.525 32.1474 113.176 32.1474H115.248C118.997 32.1474 120.871 30.2115 120.871 26.3361V5.68697C120.871 5.35867 121.053 5.0607 121.343 4.90904ZM103.509 31.0376C104.101 30.2989 104.397 28.9447 104.397 26.9749L104.395 26.9731V25.3476C104.395 22.5892 103.524 20.3731 101.781 18.6977C100.302 17.2525 98.4438 16.5299 96.2086 16.5299C92.36 16.5299 88.9401 18.3855 85.9473 22.0967C83.6799 24.8891 82.004 28.2381 80.9176 32.1456H100.254C101.833 32.1456 102.918 31.7763 103.509 31.0376Z" fill="#155EEF"/>
    <path d="M135.072 4.10077L133.523 4.90904C133.234 5.0607 133.051 5.35867 133.051 5.68518V34.3171C133.051 34.8042 133.448 35.2003 133.938 35.2003H135.471C135.96 35.2003 136.357 34.8042 136.357 34.3171V4.8787C136.357 4.22031 135.656 3.79566 135.072 4.10077Z" fill="#155EEF"/>
    <path d="M14.3773 48.6482C13.0301 48.6482 12.3547 49.3208 12.3547 50.6679C12.3547 52.0151 13.0301 52.6877 14.3773 52.6877C15.7245 52.6877 16.3017 52.0151 16.3017 50.6679C16.3017 49.3208 15.6602 48.6482 14.3773 48.6482Z" fill="#155EEF"/>
    <path d="M20.0002 48.6482C18.687 48.6482 18.0294 49.3208 18.0294 50.6679C18.0294 52.0151 18.687 52.6877 20.0002 52.6877C21.3135 52.6877 21.9746 52.0151 21.9746 50.6679C21.9746 49.3208 21.3153 48.6482 20.0002 48.6482Z" fill="#155EEF"/>
    <path d="M55.4171 40.3746C54.0682 40.3746 53.3945 41.0312 53.3945 42.3444C53.3945 43.7236 54.0682 44.4124 55.4171 44.4124C56.7661 44.4124 57.3397 43.7236 57.3397 42.3444C57.3397 40.9652 56.6982 40.3746 55.4171 40.3746Z" fill="#155EEF"/>
    <path fill-rule="evenodd" clip-rule="evenodd" d="M78.5859 56.1786C78.2936 56.69 77.9374 57.1482 77.5156 57.5552C77.0922 57.962 76.6276 58.3099 76.1202 58.5972C75.6128 58.8862 75.066 59.1057 74.4818 59.2591C73.8975 59.4126 73.2971 59.4893 72.6825 59.4893C71.6819 59.4893 70.7421 59.2966 69.8612 58.913C68.9803 58.5294 68.2103 58.0066 67.5492 57.3464C66.8881 56.6862 66.3646 55.9137 65.9804 55.0304C65.5962 54.1472 65.4033 53.2105 65.4033 52.2202C65.4033 51.23 65.5945 50.295 65.9804 49.4154C66.3646 48.5358 66.8881 47.7668 67.5492 47.1066C68.2103 46.4464 68.9839 45.9236 69.8684 45.54C70.7528 45.1564 71.6908 44.9637 72.6825 44.9637C73.29 44.9637 73.8814 45.0422 74.4585 45.1992C75.0356 45.3562 75.5788 45.5793 76.0898 45.8683C76.6008 46.1556 77.0707 46.5053 77.4978 46.9157C77.9248 47.326 78.2875 47.7882 78.5877 48.3038V45.4704C78.5877 45.2403 78.6985 45.1243 78.9218 45.1243H79.4989C79.7527 45.1243 79.8795 45.2403 79.8795 45.4704V58.8666C79.8795 58.9897 79.8402 59.0789 79.758 59.136C79.6776 59.1931 79.5793 59.2234 79.4632 59.2234H79.0129C78.7289 59.2234 78.5859 59.0896 78.5859 58.8202V56.1786ZM76.8528 48.0237C77.4031 48.5715 77.8391 49.2084 78.1625 49.9293V49.9311C78.4858 50.6519 78.6467 51.4013 78.6467 52.222C78.6467 53.0428 78.4876 53.8207 78.1678 54.5541C77.848 55.2874 77.4138 55.9279 76.8635 56.4775C76.3132 57.027 75.6735 57.4588 74.9427 57.7782C74.212 58.0976 73.4204 58.2564 72.6128 58.2564C71.8052 58.2564 71.0458 58.0904 70.3347 57.7603C69.6236 57.4303 69 56.9896 68.4658 56.4364C67.9315 55.8833 67.5099 55.241 67.2025 54.5077C66.8952 53.7743 66.7416 52.9964 66.7416 52.1988C66.7416 51.4013 66.9006 50.6376 67.2204 49.9132C67.5402 49.187 67.9691 48.55 68.5069 48.0005C69.0447 47.4509 69.67 47.0156 70.3812 46.6926C71.0923 46.3697 71.8445 46.2091 72.636 46.2091H72.6718C73.4722 46.218 74.2316 46.384 74.9499 46.7105C75.6682 47.037 76.3025 47.4741 76.8528 48.0237Z" fill="#155EEF"/>
    <path d="M83.2136 41.4041C83.2136 41.281 83.2422 41.1811 83.2993 41.1044C83.3565 41.0276 83.4476 40.9902 83.5709 40.9902H84.1481C84.2713 40.9902 84.3625 41.0294 84.4196 41.1115C84.4768 41.1918 84.5054 41.2899 84.5054 41.4059V58.8113C84.5054 58.9344 84.4768 59.0343 84.4196 59.111C84.3625 59.1878 84.2713 59.2252 84.1481 59.2252H83.5709C83.4476 59.2252 83.3565 59.1895 83.2993 59.1164C83.2422 59.0432 83.2136 58.9415 83.2136 58.8113V41.4041Z" fill="#155EEF"/>
    <path d="M90.1587 45.2064H92.6959C92.8031 45.2064 92.887 45.2331 92.9496 45.2866C93.0121 45.3402 93.0425 45.4294 93.0425 45.5507V46.0004C93.0425 46.0931 93.0103 46.1877 92.9442 46.2823C92.8799 46.3786 92.7924 46.4268 92.6851 46.4268H90.1587V56.1831C90.1587 56.3829 90.1837 56.5899 90.2337 56.8058C90.2838 57.0217 90.3677 57.2179 90.4874 57.3999C90.6072 57.5801 90.7644 57.7282 90.9609 57.8442C91.1575 57.9584 91.4005 58.0209 91.6935 58.028L92.108 58.0387C92.2313 58.0387 92.326 58.0512 92.3903 58.0744C92.4547 58.0976 92.5029 58.1226 92.5297 58.1493C92.5565 58.1761 92.5708 58.2064 92.5761 58.2421C92.5797 58.276 92.5815 58.3099 92.5815 58.3402V58.8933C92.5815 59.0165 92.5583 59.1075 92.5118 59.1646C92.4654 59.2217 92.3117 59.2502 92.0508 59.2502C91.8972 59.2502 91.7542 59.2484 91.6238 59.2448C91.4934 59.2413 91.3701 59.2306 91.254 59.2163C90.8627 59.1699 90.516 59.0611 90.2159 58.888C89.9157 58.7149 89.662 58.5026 89.4547 58.2492C89.2474 57.9959 89.0884 57.7068 88.9812 57.3857C88.874 57.0627 88.8204 56.729 88.8204 56.3829V46.4304H86.8818C86.7817 46.4304 86.696 46.3893 86.6227 46.309C86.5495 46.2287 86.5137 46.127 86.5137 46.0039V45.5668C86.5137 45.4365 86.5495 45.3437 86.6227 45.2902C86.696 45.2367 86.7817 45.2099 86.8818 45.2099H88.8204V42.1928C88.8204 42.0768 88.8454 41.9911 88.8954 41.934C88.9455 41.8769 89.0366 41.8288 89.167 41.7895L89.7888 41.6289C89.812 41.6218 89.8424 41.6164 89.8817 41.6164C89.9746 41.6164 90.0425 41.6557 90.089 41.7378C90.1355 41.8181 90.1587 41.9126 90.1587 42.0197V45.2099V45.2064Z" fill="#155EEF"/>
    <path fill-rule="evenodd" clip-rule="evenodd" d="M94.7363 40.7368C94.6899 40.7975 94.6666 40.8742 94.6666 40.967V41.7842C94.6666 41.9911 94.7774 42.0946 95.0008 42.0946H95.8316C95.9156 42.0946 95.9853 42.075 96.0389 42.0322C96.0925 41.9893 96.1193 41.9073 96.1193 41.7842V40.9777C96.1193 40.7564 96.0228 40.644 95.8316 40.644H94.99C94.8668 40.644 94.7828 40.6761 94.7363 40.7368ZM95.0937 45.1243C94.856 45.1243 94.7363 45.251 94.7363 45.5043H94.7381V58.8327C94.7381 59.0932 94.8578 59.2234 95.0955 59.2234H95.8102C96.0317 59.2234 96.1443 59.0932 96.1443 58.8327V45.5043C96.1443 45.3884 96.0978 45.2974 96.0049 45.2278C95.9138 45.1582 95.8102 45.1243 95.694 45.1243H95.0937Z" fill="#155EEF"/>
    <path fill-rule="evenodd" clip-rule="evenodd" d="M100.204 40.9902C100.004 40.9902 99.9036 41.0901 99.9036 41.2899V58.8684C99.9036 59.1057 100.023 59.2252 100.261 59.2252H100.838C101.076 59.2252 101.195 59.1057 101.195 58.8684V56.1956C101.349 56.4418 101.517 56.688 101.697 56.9378C101.878 57.1876 102.064 57.3999 102.257 57.5766C102.909 58.1975 103.647 58.6739 104.471 59.004C105.294 59.3341 106.166 59.5 107.09 59.5C108.089 59.5 109.029 59.3091 109.909 58.929C110.79 58.549 111.559 58.0316 112.216 57.375C112.874 56.7166 113.395 55.9476 113.779 55.0643C114.164 54.1811 114.357 53.2391 114.357 52.2417C114.357 51.2443 114.164 50.3057 113.779 49.4261C113.395 48.5465 112.874 47.7792 112.216 47.1226C111.559 46.466 110.79 45.945 109.909 45.5614C109.03 45.1778 108.089 44.9851 107.09 44.9851C106.481 44.9851 105.887 45.0636 105.307 45.2206C104.726 45.3794 104.183 45.6025 103.675 45.8897C103.168 46.177 102.703 46.5249 102.28 46.9317C101.857 47.3403 101.496 47.7971 101.195 48.3038V41.2774C101.195 41.0865 101.113 40.9902 100.952 40.9902H100.204ZM111.255 48.0005C111.793 48.55 112.218 49.1888 112.529 49.9186L112.527 49.9168C112.838 50.6465 112.993 51.437 112.993 52.2434C112.993 53.0499 112.84 53.8172 112.532 54.5469C112.225 55.2767 111.807 55.9154 111.276 56.465C110.746 57.0145 110.124 57.4499 109.413 57.7728C108.702 58.0958 107.946 58.2564 107.124 58.2564C106.302 58.2564 105.525 58.0994 104.794 57.7835C104.065 57.4695 103.425 57.0413 102.88 56.4989C102.334 55.9583 101.903 55.3248 101.583 54.5987C101.263 53.8743 101.104 53.0803 101.104 52.2666C101.104 51.453 101.26 50.6787 101.571 49.9453C101.882 49.212 102.307 48.5697 102.845 48.0166C103.384 47.4634 104.015 47.0245 104.737 46.698C105.46 46.3733 106.232 46.2091 107.056 46.2091C107.88 46.2091 108.65 46.3697 109.37 46.6926C110.088 47.0156 110.717 47.4509 111.255 48.0005Z" fill="#155EEF"/>
    <path fill-rule="evenodd" clip-rule="evenodd" d="M117.68 40.9902C117.48 40.9902 117.38 41.0901 117.38 41.2899V58.8684C117.38 59.1057 117.5 59.2252 117.737 59.2252H118.314C118.552 59.2252 118.672 59.1057 118.672 58.8684V56.1956C118.825 56.4418 118.993 56.688 119.174 56.9378C119.354 57.1876 119.54 57.3999 119.733 57.5766C120.385 58.1975 121.123 58.6739 121.947 59.004C122.77 59.3341 123.642 59.5 124.566 59.5C125.565 59.5 126.505 59.3091 127.386 58.929C128.266 58.549 129.035 58.0316 129.692 57.375C130.35 56.7166 130.872 55.9476 131.256 55.0643C131.64 54.1811 131.833 53.2391 131.833 52.2417C131.833 51.2443 131.64 50.3057 131.256 49.4261C130.872 48.5465 130.35 47.7792 129.692 47.1226C129.035 46.466 128.266 45.945 127.386 45.5614C126.507 45.1778 125.565 44.9851 124.566 44.9851C123.957 44.9851 123.364 45.0636 122.783 45.2206C122.202 45.3794 121.659 45.6025 121.152 45.8897C120.644 46.177 120.18 46.5249 119.756 46.9317C119.333 47.3403 118.972 47.7971 118.672 48.3038V41.2774C118.672 41.0865 118.589 40.9902 118.429 40.9902H117.68ZM128.731 48.0005C129.269 48.55 129.694 49.1888 130.005 49.9186V49.9168C130.316 50.6465 130.471 51.437 130.471 52.2434C130.471 53.0499 130.318 53.8172 130.01 54.5469C129.701 55.2767 129.283 55.9154 128.752 56.465C128.222 57.0145 127.6 57.4499 126.889 57.7728C126.178 58.0958 125.422 58.2564 124.6 58.2564C123.778 58.2564 123.001 58.0994 122.27 57.7835C121.541 57.4695 120.901 57.0413 120.357 56.4989C119.81 55.9583 119.379 55.3248 119.059 54.5987C118.74 53.8743 118.58 53.0803 118.58 52.2666C118.58 51.453 118.736 50.6787 119.047 49.9453C119.358 49.212 119.783 48.5697 120.321 48.0166C120.86 47.4634 121.491 47.0245 122.213 46.698C122.937 46.3733 123.708 46.2091 124.532 46.2091C125.356 46.2091 126.126 46.3697 126.846 46.6926C127.564 47.0156 128.193 47.4509 128.731 48.0005Z" fill="#155EEF"/>
    <path fill-rule="evenodd" clip-rule="evenodd" d="M134.647 40.7368C134.6 40.7975 134.577 40.8742 134.577 40.967V41.7842C134.577 41.9911 134.688 42.0946 134.911 42.0946H135.742C135.826 42.0946 135.896 42.075 135.949 42.0322C136.003 41.9893 136.03 41.9073 136.03 41.7842V40.9777C136.03 40.7564 135.933 40.644 135.742 40.644H134.901C134.777 40.644 134.693 40.6761 134.647 40.7368ZM135.004 45.1243C134.767 45.1243 134.647 45.251 134.647 45.5043H134.649V58.8327C134.649 59.0932 134.768 59.2234 135.006 59.2234H135.721C135.942 59.2234 136.055 59.0932 136.055 58.8327V45.5043C136.055 45.3884 136.008 45.2974 135.916 45.2278C135.824 45.1582 135.721 45.1243 135.605 45.1243H135.004Z" fill="#155EEF"/>
    <defs>
        <filter id="filter0_dd_30_9180" x="151.094" y="0.53125" width="65.9587" height="65.9062" filterUnits="userSpaceOnUse" color-interpolation-filters="sRGB">
            <feFlood flood-opacity="0" result="BackgroundImageFix"/>
            <feColorMatrix in="SourceAlpha" type="matrix" values="0 0 0 0 0 0 0 0 0 0 0 0 0 0 0 0 0 0 127 0" result="hardAlpha"/>
            <feOffset dy="1.73438"/>
            <feGaussianBlur stdDeviation="1.73438"/>
            <feColorMatrix type="matrix" values="0 0 0 0 0.0627451 0 0 0 0 0.0941176 0 0 0 0 0.156863 0 0 0 0.06 0"/>
            <feBlend mode="normal" in2="BackgroundImageFix" result="effect1_dropShadow_30_9180"/>
            <feColorMatrix in="SourceAlpha" type="matrix" values="0 0 0 0 0 0 0 0 0 0 0 0 0 0 0 0 0 0 127 0" result="hardAlpha"/>
            <feOffset dy="1.73438"/>
            <feGaussianBlur stdDeviation="2.60156"/>
            <feColorMatrix type="matrix" values="0 0 0 0 0.0627451 0 0 0 0 0.0941176 0 0 0 0 0.156863 0 0 0 0.1 0"/>
            <feBlend mode="normal" in2="effect1_dropShadow_30_9180" result="effect2_dropShadow_30_9180"/>
            <feBlend mode="normal" in="SourceGraphic" in2="effect2_dropShadow_30_9180" result="shape"/>
        </filter>
    </defs>
</svg>
