<?xml version="1.0" encoding="UTF-8"?>
<svg id="Layer_1" xmlns="http://www.w3.org/2000/svg" viewBox="0 0 1200 364.89">
    <defs>
        <style>.cls-1{fill-opacity:0;}.cls-2{fill:#fff;}</style>
    </defs>
    <g>
        <circle class="cls-1" cx="1025.12" cy="183.34" r="154.63"/>
        <g>
            <path class="cls-2"
                  d="M951.63,233.71c-5.06-6.15-9.66-12.85-13.56-19.71l-.59-1.09c-8.28-14.38-13.61-30.96-15.39-47.93l-.07-.59c-1.53-15.93,2.69-31.52,11.29-41.63,6.72-7.81,16.4-12.5,26.39-12.92l1.8-.02c10.65,0,20.65,4.72,27.37,12.8l.32,.42c8.45,10.48,11.69,26.06,8.47,40.74-6.62,30.54-28.58,54.9-45.66,69.82l-.27,.22-.1-.1Z"/>
            <path class="cls-2"
                  d="M1098.41,233.71c-17.24-15.05-39.21-39.4-45.83-69.97-3.21-14.65,.05-30.24,8.57-40.81l.1-.15c6.84-8.25,16.85-12.97,27.69-12.97h.49l.96,.02c10.13,.42,19.81,5.11,26.51,12.87,8.62,10.15,12.85,25.74,11.32,41.68l-.05,.54c-1.8,17.02-7.14,33.6-15.49,48.13l-.44,.82c-3.95,6.99-8.55,13.69-13.64,19.84l-.07,.1-.12-.1Z"/>
            <path class="cls-2"
                  d="M1100.04,250.95c14.28,11.14,29.57,20.31,46.64,27.99-10.62,13.51-23.47,25.22-38.02,34.59-.1,.07-.22,.12-.32,.2-2.25,1.43-4.52,2.82-6.84,4.13-.17,.12-.37,.22-.57,.35-2.35,1.33-4.77,2.62-7.21,3.83-.07,.02-.15,.07-.22,.1-7.56,3.76-15.47,6.87-23.67,9.34-.64,.2-1.26,.37-1.88,.54-2.03,.57-4.05,1.14-6.13,1.63-.84,.2-1.68,.4-2.54,.59-1.85,.42-3.73,.82-5.63,1.16-.94,.17-1.9,.35-2.84,.49-1.85,.32-3.73,.59-5.61,.84-.96,.12-1.93,.25-2.89,.35-2,.22-4,.4-6.03,.54-.84,.05-1.68,.15-2.52,.2-2.87,.15-5.73,.25-8.65,.25h-.2c-2.82-.02-5.61-.1-8.38-.25-.99-.05-1.98-.15-2.96-.22-1.85-.15-3.71-.3-5.53-.49-1.11-.12-2.22-.27-3.33-.42-1.7-.22-3.38-.47-5.06-.74-1.11-.2-2.25-.4-3.36-.62-1.68-.3-3.36-.64-5.02-1.01-1.04-.25-2.1-.47-3.14-.74-1.8-.44-3.58-.91-5.36-1.43-.86-.25-1.73-.47-2.57-.72-2.35-.72-4.67-1.48-6.97-2.3-.25-.1-.52-.17-.77-.27-5.39-1.95-10.6-4.2-15.69-6.7-.2-.1-.4-.22-.62-.32-2.32-1.16-4.62-2.4-6.89-3.66-.22-.15-.47-.27-.69-.4-2.3-1.33-4.57-2.69-6.79-4.13-.1-.07-.2-.12-.32-.2-14.43-9.31-27.23-20.95-37.82-34.41-.02,0-.05-.02-.05-.05t-.02-.05c17.1-7.68,32.39-16.85,46.77-28.07l.02-.02,.69,.74c2.37,2.45,4.82,4.82,7.46,7.24,18.38,16.9,46.12,33.95,66.63,33.95s48.22-17.05,66.61-33.92c2.67-2.45,5.09-4.82,7.46-7.26l.69-.74,.15,.1Z"/>
            <path class="cls-2"
                  d="M1179.79,182.92v.84c0,2.2-.07,4.4-.17,6.57-.02,.89-.1,1.78-.15,2.64-.07,1.48-.2,2.92-.32,4.37-.1,.96-.17,1.93-.27,2.89-.2,1.66-.4,3.31-.64,4.94-.2,1.41-.42,2.79-.64,4.18-.22,1.28-.44,2.54-.69,3.8-.2,1.14-.44,2.22-.69,3.34-.25,1.11-.49,2.25-.77,3.36-.27,1.06-.52,2.15-.81,3.24-.4,1.56-.86,3.14-1.31,4.67-.4,1.31-.82,2.62-1.24,3.9-.4,1.19-.79,2.35-1.19,3.51-.37,1.04-.74,2.05-1.14,3.06-.42,1.09-.84,2.15-1.26,3.21-.42,1.01-.82,2.03-1.24,3.01-.54,1.24-1.09,2.42-1.63,3.61-.84,1.83-1.73,3.63-2.62,5.39-.3,.54-.54,1.09-.84,1.63-2.47,4.69-5.16,9.26-8.08,13.66h-.02c-16.97-7.44-32.04-16.35-45.95-27.15v-.02c5.56-6.7,10.55-13.98,14.95-21.72l.42-.79c9.12-15.84,15-34.12,16.97-52.87l.05-.59c1.88-19.22-3.43-38.24-14.21-50.92-8.97-10.38-21.86-16.65-35.55-17.19h-.67c-.37-.02-.79-.02-1.33-.02-14.33,0-27.82,6.35-37.13,17.59l-.17,.22c-10.72,13.32-14.92,32.91-10.94,51.12,3.66,16.87,11.41,31.92,20.6,44.82,9.19,12.9,19.81,23.62,29.2,31.82-2.2,2.27-4.45,4.47-6.89,6.72-16.63,15.24-41.97,30.68-58.28,30.68s-41.68-15.44-58.28-30.68c-2.47-2.25-4.72-4.45-6.89-6.72,18.65-16.28,42.44-42.79,49.78-76.64,3.98-18.21-.2-37.8-10.87-51.02l-.37-.47c-9.19-11.09-22.68-17.44-37.21-17.44-.4,0-.79,0-1.16,.02l-.77,.02c-13.56,.52-26.46,6.79-35.45,17.19-10.75,12.65-16.06,31.67-14.18,50.89l.05,.62c1.98,18.73,7.86,37.01,16.9,52.7l.57,1.06c4.32,7.61,9.31,14.9,14.87,21.62-14.01,10.85-29,19.71-45.95,27.15-9.93-14.97-17.32-31.77-21.57-49.76-.15-.62-.3-1.26-.42-1.9-.32-1.38-.62-2.79-.89-4.22-.17-.86-.32-1.73-.47-2.62-.35-1.93-.64-3.88-.91-5.83-.2-1.36-.37-2.72-.52-4.1-.12-1.01-.2-2.03-.3-3.04-.12-1.41-.22-2.84-.32-4.27-.05-.89-.12-1.78-.15-2.67-.1-2.17-.17-4.37-.17-6.57v-.84c0-2.22,.07-4.4,.17-6.6,.02-.89,.1-1.75,.15-2.64,.1-1.46,.2-2.92,.32-4.37,.1-.96,.17-1.93,.27-2.89,.2-1.66,.4-3.29,.64-4.94,.2-1.38,.42-2.77,.64-4.15,.22-1.28,.44-2.57,.69-3.83,.22-1.11,.44-2.22,.69-3.34,.25-1.11,.49-2.22,.77-3.34,.27-1.09,.52-2.17,.82-3.24,.42-1.58,.86-3.14,1.33-4.69,.37-1.31,.79-2.59,1.21-3.9,.4-1.16,.79-2.35,1.21-3.51,.35-1.01,.74-2.05,1.11-3.06,.42-1.06,.84-2.15,1.28-3.21,.4-1.01,.79-2.03,1.24-3.01,.52-1.21,1.06-2.4,1.63-3.61,.84-1.8,1.7-3.61,2.62-5.39,.27-.54,.54-1.09,.82-1.61,12.48-23.82,30.98-43.98,53.51-58.45,.1-.07,.22-.15,.32-.22,2.25-1.43,4.52-2.82,6.84-4.13,.2-.1,.37-.22,.57-.32,2.37-1.33,4.77-2.62,7.21-3.83,.07-.05,.15-.07,.22-.12,7.56-3.73,15.49-6.87,23.69-9.34,.62-.17,1.24-.35,1.88-.52,2-.59,4.05-1.14,6.1-1.63,.84-.22,1.68-.4,2.54-.59,1.85-.42,3.76-.82,5.63-1.16,.96-.17,1.9-.35,2.84-.52,1.88-.3,3.73-.57,5.63-.82,.94-.12,1.9-.27,2.87-.37,2-.22,4.03-.4,6.03-.52,.86-.07,1.68-.15,2.54-.2,2.84-.17,5.71-.25,8.62-.25h.2c2.82,0,5.61,.1,8.4,.25,.99,.05,1.95,.15,2.94,.22,1.85,.12,3.71,.27,5.53,.47,1.11,.12,2.22,.3,3.36,.44,1.68,.22,3.36,.44,5.04,.74,1.14,.17,2.25,.37,3.36,.59,1.68,.32,3.36,.67,5.02,1.04,1.04,.22,2.1,.47,3.14,.72,1.8,.44,3.58,.94,5.36,1.43,.86,.25,1.73,.47,2.57,.74,2.35,.72,4.67,1.48,6.97,2.3,.25,.07,.52,.17,.77,.25,5.39,1.95,10.62,4.2,15.69,6.72,.22,.1,.42,.2,.62,.3,2.35,1.19,4.64,2.4,6.89,3.68,.25,.12,.47,.27,.69,.4,2.3,1.31,4.57,2.69,6.79,4.13,.12,.05,.22,.12,.32,.17,14.43,9.31,27.23,20.97,37.82,34.41t.05,.07c13.71,17.37,23.74,37.75,28.98,59.98,.15,.64,.3,1.26,.44,1.9,.3,1.41,.59,2.82,.86,4.22,.17,.86,.32,1.75,.47,2.62,.35,1.95,.67,3.88,.91,5.83,.2,1.38,.37,2.74,.52,4.1,.12,1.01,.2,2.03,.3,3.04,.12,1.43,.25,2.84,.32,4.27,.05,.89,.12,1.78,.15,2.67,.1,2.2,.17,4.37,.17,6.6Z"/>
        </g>
    </g>
    <g>
        <path fill="#fff"
              d="M690.21,27.39l-8.67,4.53c-1.62,.85-2.64,2.52-2.64,4.36v115.73c0,21.72-10.49,32.57-31.47,32.57h-11.6c-20.43,0-30.65-10.3-30.65-30.92v-7.18c0-17.85-5.16-32.85-15.45-45-12.15-14.17-28.53-21.26-49.14-21.26-35.52,0-64.05,19.79-85.58,59.35V32.32c0-3.88-4.18-6.32-7.56-4.41l-6.98,3.94c-1.59,.9-2.57,2.59-2.57,4.41V184.58h-82.81c-20.25,0-30.36-10.49-30.36-31.47v-61.51c0-3.67-3.9-6.03-7.15-4.33l-8.73,4.56c-1.61,.84-2.62,2.51-2.62,4.33v56.95c0,20.98-10.13,31.47-30.37,31.47H146.12c-1.88,0-3.6,1.05-4.47,2.72l-3.64,7.06c-1.73,3.35,.7,7.33,4.47,7.33h19.9c-1.47,9.2-6.44,16.93-14.91,23.19-11.41,8.46-27.14,12.7-47.2,12.7s-34.78-4.88-45.82-14.63c-11.6-10.12-17.39-23.65-17.39-40.58,0-11.76,2.61-22.97,7.85-33.64,1.87-3.8-1.33-8.09-5.48-7.26l-4.94,.99c-1.35,.27-2.58,1.06-3.34,2.21-7.29,11.04-10.92,24.06-10.92,39.07,0,18.03,5.34,33.22,16.01,45.55,14.35,16.56,35.71,24.85,64.04,24.85,22.82,0,41.5-4.69,56.04-14.08,15.09-9.76,23.38-22.55,24.86-38.37h96.9c16.37,0,28.89-5.61,37.54-16.84,8.28,11.23,20.7,16.84,37.27,16.84h212.56c14.72,0,25.4-4.97,32.02-14.91,8.46,9.94,20.43,14.91,35.89,14.91h16.01c14.17,0,25.58-4.14,34.23-12.42,9.2-9.01,13.81-21.35,13.81-36.99V31.75c0-3.69-3.92-6.06-7.19-4.36m-103.52,128.2c0,11.04-1.66,18.63-4.97,22.77-3.31,4.14-9.38,6.21-18.22,6.21h-108.22c6.08-21.9,15.46-40.67,28.15-56.32,16.75-20.8,35.89-31.2,57.43-31.2,12.51,0,22.91,4.05,31.19,12.15,9.75,9.39,14.63,21.81,14.63,37.27v9.11Z"/>
        <path fill="#fff"
              d="M758.38,27.39l-8.67,4.53c-1.62,.85-2.64,2.52-2.64,4.35V196.74c0,2.73,2.22,4.95,4.96,4.95h8.58c2.74,0,4.96-2.22,4.96-4.95V31.75c0-3.69-3.92-6.07-7.19-4.36"/>
    </g>
    <path fill="#fff"
          d="M82.88,277.06c-7.54,0-11.32,3.77-11.32,11.32s3.78,11.32,11.32,11.32,10.77-3.77,10.77-11.32-3.59-11.32-10.77-11.32"/>
    <path fill="#fff"
          d="M114.35,277.06c-7.35,0-11.03,3.77-11.03,11.32s3.68,11.32,11.03,11.32,11.05-3.77,11.05-11.32-3.69-11.32-11.05-11.32"/>
    <path fill="#fff"
          d="M312.57,230.69c-7.55,0-11.32,3.68-11.32,11.04,0,7.73,3.77,11.59,11.32,11.59s10.76-3.86,10.76-11.59-3.59-11.04-10.76-11.04"/>
    <path fill="#fff"
          d="M442.26,319.23c-1.64,2.88-3.64,5.46-6.01,7.75-2.37,2.28-4.97,4.23-7.81,5.84-2.84,1.62-5.9,2.85-9.17,3.71-3.27,.86-6.63,1.29-10.07,1.29-5.6,0-10.86-1.08-15.79-3.23-4.93-2.15-9.24-5.08-12.94-8.78-3.7-3.7-6.63-8.03-8.78-12.98-2.15-4.95-3.23-10.2-3.23-15.75s1.07-10.79,3.23-15.72c2.15-4.93,5.08-9.24,8.78-12.94,3.7-3.7,8.03-6.63,12.98-8.78,4.95-2.15,10.2-3.23,15.75-3.23,3.4,0,6.71,.44,9.94,1.32,3.23,.88,6.27,2.13,9.13,3.75,2.86,1.61,5.49,3.57,7.88,5.87,2.39,2.3,4.42,4.89,6.1,7.78v-15.88c0-1.29,.62-1.94,1.87-1.94h3.23c1.42,0,2.13,.65,2.13,1.94v75.08c0,.69-.22,1.19-.68,1.51-.45,.32-1,.49-1.65,.49h-2.52c-1.59,0-2.39-.75-2.39-2.26v-14.85Zm-2.39-34.99c-1.81-4.04-4.25-7.61-7.33-10.68-3.08-3.08-6.63-5.53-10.65-7.36-4.02-1.83-8.27-2.76-12.75-2.81h-.2c-4.43,0-8.64,.9-12.62,2.71-3.98,1.81-7.48,4.25-10.49,7.33-3.01,3.08-5.41,6.65-7.2,10.72-1.79,4.06-2.68,8.34-2.68,12.81s.86,8.83,2.58,12.94c1.72,4.11,4.08,7.71,7.07,10.81,2.99,3.1,6.48,5.57,10.46,7.42,3.98,1.85,8.23,2.78,12.75,2.78s8.95-.89,13.04-2.68c4.09-1.79,7.67-4.21,10.75-7.29,3.08-3.08,5.51-6.67,7.3-10.78,1.79-4.11,2.68-8.47,2.68-13.07s-.9-8.8-2.71-12.84"/>
    <path fill="#fff"
          d="M468.14,236.46c0-.69,.16-1.25,.48-1.68,.32-.43,.83-.64,1.52-.64h3.23c.69,0,1.2,.22,1.52,.68,.32,.45,.48,1,.48,1.65v97.55c0,.69-.16,1.25-.48,1.68-.32,.43-.83,.64-1.52,.64h-3.23c-.69,0-1.2-.2-1.52-.61-.32-.41-.48-.98-.48-1.71v-97.55Z"/>
    <path fill="#fff"
          d="M507.01,257.77h14.2c.6,0,1.07,.15,1.42,.45,.35,.3,.52,.8,.52,1.48v2.52c0,.52-.18,1.05-.55,1.58-.36,.54-.85,.81-1.45,.81h-14.14v54.68c0,1.12,.14,2.28,.42,3.49,.28,1.21,.75,2.31,1.42,3.33,.67,1.01,1.55,1.84,2.65,2.49,1.1,.64,2.46,.99,4.1,1.03l2.32,.06c.69,0,1.22,.07,1.58,.2s.63,.27,.78,.42c.15,.15,.23,.32,.26,.52,.02,.19,.03,.38,.03,.55v3.1c0,.69-.13,1.2-.39,1.52-.26,.32-1.12,.48-2.58,.48-.86,0-1.66-.01-2.39-.03-.73-.02-1.42-.08-2.07-.16-2.19-.26-4.13-.87-5.81-1.84-1.68-.97-3.1-2.16-4.26-3.58-1.16-1.42-2.05-3.04-2.65-4.84-.6-1.81-.9-3.68-.9-5.62v-55.78h-10.85c-.56,0-1.04-.23-1.45-.68-.41-.45-.61-1.02-.61-1.71v-2.45c0-.73,.2-1.25,.61-1.55,.41-.3,.89-.45,1.45-.45h10.85v-16.91c0-.65,.14-1.13,.42-1.45,.28-.32,.79-.59,1.52-.81l3.48-.9c.13-.04,.3-.07,.52-.07,.52,0,.9,.22,1.16,.68,.26,.45,.39,.98,.39,1.58v17.88Z"/>
    <path fill="#fff"
          d="M532.24,234.01c0-.52,.13-.95,.39-1.29,.26-.34,.73-.52,1.42-.52h4.71c1.07,0,1.61,.63,1.61,1.87v4.52c0,.69-.15,1.15-.45,1.39-.3,.24-.69,.35-1.16,.35h-4.65c-1.25,0-1.87-.58-1.87-1.74v-4.58Zm.39,25.43c0-1.42,.67-2.13,2-2.13h3.36c.65,0,1.23,.19,1.74,.58,.52,.39,.78,.9,.78,1.55v74.7c0,1.46-.63,2.19-1.87,2.19h-4c-1.33,0-2-.73-2-2.19v-74.7Z"/>
    <path fill="#fff"
          d="M561.55,235.82c0-1.12,.56-1.68,1.68-1.68h4.19c.9,0,1.36,.54,1.36,1.61v39.38c1.68-2.84,3.7-5.4,6.07-7.69,2.37-2.28,4.97-4.23,7.81-5.84,2.84-1.61,5.88-2.86,9.13-3.75,3.25-.88,6.57-1.32,9.98-1.32,5.59,0,10.86,1.08,15.78,3.23,4.93,2.15,9.23,5.07,12.91,8.75,3.68,3.68,6.6,7.98,8.75,12.91,2.15,4.93,3.23,10.19,3.23,15.78s-1.08,10.87-3.23,15.82c-2.15,4.95-5.07,9.26-8.75,12.95-3.68,3.68-7.98,6.58-12.91,8.71-4.93,2.13-10.19,3.2-15.78,3.2-5.17,0-10.05-.93-14.66-2.78-4.61-1.85-8.74-4.52-12.39-8-1.08-.99-2.12-2.18-3.13-3.58-1.01-1.4-1.95-2.78-2.81-4.16v14.98c0,1.33-.67,2-2,2h-3.23c-1.33,0-2-.67-2-2v-98.52Zm70.66,48.36c-1.74-4.09-4.12-7.67-7.13-10.75-3.01-3.08-6.53-5.52-10.55-7.33-4.03-1.81-8.34-2.71-12.95-2.71s-8.93,.92-12.98,2.74c-4.04,1.83-7.57,4.29-10.59,7.39-3.01,3.1-5.39,6.7-7.13,10.81-1.74,4.11-2.61,8.45-2.61,13.01s.89,9.01,2.68,13.07c1.79,4.07,4.2,7.62,7.26,10.65,3.05,3.04,6.63,5.44,10.71,7.2,4.09,1.77,8.44,2.65,13.04,2.65s8.83-.9,12.81-2.71c3.98-1.81,7.46-4.25,10.43-7.33,2.97-3.08,5.31-6.66,7.03-10.75,1.72-4.09,2.58-8.39,2.58-12.91s-.87-8.95-2.61-13.04"/>
    <path fill="#fff"
          d="M659.36,235.82c0-1.12,.56-1.68,1.68-1.68h4.19c.9,0,1.36,.54,1.36,1.61v39.38c1.68-2.84,3.7-5.4,6.07-7.69,2.37-2.28,4.97-4.23,7.81-5.84,2.84-1.61,5.88-2.86,9.13-3.75,3.25-.88,6.57-1.32,9.98-1.32,5.59,0,10.86,1.08,15.78,3.23,4.93,2.15,9.23,5.07,12.91,8.75,3.68,3.68,6.6,7.98,8.75,12.91,2.15,4.93,3.23,10.19,3.23,15.78s-1.08,10.87-3.23,15.82c-2.15,4.95-5.07,9.26-8.75,12.95-3.68,3.68-7.98,6.58-12.91,8.71-4.93,2.13-10.19,3.2-15.78,3.2-5.17,0-10.05-.93-14.66-2.78-4.61-1.85-8.74-4.52-12.39-8-1.08-.99-2.12-2.18-3.13-3.58-1.01-1.4-1.95-2.78-2.81-4.16v14.98c0,1.33-.67,2-2,2h-3.23c-1.33,0-2-.67-2-2v-98.52Zm70.66,48.36c-1.74-4.09-4.12-7.67-7.13-10.75-3.01-3.08-6.53-5.52-10.55-7.33-4.03-1.81-8.34-2.71-12.95-2.71s-8.93,.92-12.98,2.74c-4.04,1.83-7.57,4.29-10.59,7.39-3.01,3.1-5.39,6.7-7.13,10.81-1.74,4.11-2.61,8.45-2.61,13.01s.89,9.01,2.68,13.07c1.79,4.07,4.2,7.62,7.26,10.65,3.05,3.04,6.63,5.44,10.71,7.2,4.09,1.77,8.44,2.65,13.04,2.65s8.83-.9,12.81-2.71c3.98-1.81,7.46-4.25,10.43-7.33,2.97-3.08,5.31-6.66,7.04-10.75,1.72-4.09,2.58-8.39,2.58-12.91s-.87-8.95-2.61-13.04"/>
    <path fill="#fff"
          d="M755.61,234.01c0-.52,.13-.95,.39-1.29,.26-.34,.73-.52,1.42-.52h4.71c1.07,0,1.61,.63,1.61,1.87v4.52c0,.69-.15,1.15-.45,1.39-.3,.24-.69,.35-1.16,.35h-4.65c-1.25,0-1.87-.58-1.87-1.74v-4.58Zm.39,25.43c0-1.42,.67-2.13,2-2.13h3.36c.65,0,1.23,.19,1.74,.58,.52,.39,.78,.9,.78,1.55v74.7c0,1.46-.63,2.19-1.87,2.19h-4c-1.33,0-2-.73-2-2.19v-74.7Z"/>
</svg>
